<?xml version="1.0" encoding="UTF-8" standalone="no"?>
<svg
   font-family="arial"
   font-size="14px"
   height="391.1825"
   width="815.47443"
   version="1.1"
   id="svg95"
   sodipodi:docname="architecture-diagram.svg"
   inkscape:version="1.2-beta (1b65182ce9, 2022-04-05)"
   inkscape:export-filename="architecture-diagram.png"
   inkscape:export-xdpi="96"
   inkscape:export-ydpi="96"
   xmlns:inkscape="http://www.inkscape.org/namespaces/inkscape"
   xmlns:sodipodi="http://sodipodi.sourceforge.net/DTD/sodipodi-0.dtd"
   xmlns="http://www.w3.org/2000/svg"
   xmlns:svg="http://www.w3.org/2000/svg">
  <sodipodi:namedview
     id="namedview97"
     pagecolor="#505050"
     bordercolor="#eeeeee"
     borderopacity="1"
     inkscape:pageshadow="0"
     inkscape:pageopacity="0"
     inkscape:pagecheckerboard="0"
     inkscape:deskcolor="#505050"
     showgrid="false"
     inkscape:zoom="0.8154762"
     inkscape:cx="763.97079"
     inkscape:cy="424.29197"
     inkscape:window-width="1920"
     inkscape:window-height="1009"
     inkscape:window-x="1912"
     inkscape:window-y="-5"
     inkscape:window-maximized="1"
     inkscape:current-layer="svg95" />
  <defs
     id="defs57">
    <marker
       id="triangle"
       markerHeight="10"
       markerUnits="strokeWidth"
       markerWidth="10"
       orient="auto"
       refX="15"
       refY="10"
       viewBox="0 0 50 20">
      <path
         d="M 0,0 30,10 0,20 Z"
         id="path54" />
    </marker>
  </defs>
  <style
     id="style59">

    line, path {
      stroke: black;
      stroke-width: 2;
      stroke-opacity: 1;
      fill-opacity: 1;
      stroke-linecap: round;
      stroke-linejoin: miter;
    }
    circle {
      stroke: black;
      stroke-width: 2;
      stroke-opacity: 1;
      fill-opacity: 1;
      stroke-linecap: round;
      stroke-linejoin: miter;
      fill:white;
    }
    circle.solid {
      fill:black;
    }
    circle.open {
      fill:white;
    }
    tspan.head{
        fill: none;
        stroke: none;
    }
    
</style>
  <rect
     style="fill:#ffffff;stroke-width:1.50047;stroke-linecap:round;stroke-linejoin:round;stroke-miterlimit:10;stroke-dasharray:3.00094, 5.00157"
     id="rect190"
     width="815.47443"
     height="391.1825"
     x="0"
     y="0" />
  <path
     d="M 5.2262774,9.2262774 V 33.226277 m 0,-23.9999996 H 193.22628 m -184.0000026,0 H 193.22628 m 4,0 V 33.226277 m 0,-23.9999996 h -4 m 84,0 V 33.226277 m 0,-23.9999996 h 204 m -200,0 h 200 m 4,0 V 33.226277 m 0,-23.9999996 h -4 m 100,0 V 33.226277 m 0,-23.9999996 h 220 m -216,0 h 216 m 4,0 V 33.226277 m 0,-23.9999996 h -4 M 5.2262774,17.226277 v 16 m 192.0000026,-16 v 16 m 80,-16 v 16 m 208,-16 v 16 m 96,-16 v 16 m 224,-16 v 16 m -800.0000026,0 V 161.22628 m 0,-120.000003 H 193.22628 m -184.0000026,0 H 193.22628 m 4,-8 v 32 m 0,-24 h -4 m 84,-8 V 161.22628 m 0,-120.000003 h 204 m -200,0 h 200 m 4,-8 V 161.22628 m 0,-120.000003 h -4 m 100,-8 v 32 m 0,-24 h 220 m -216,0 h 216 m 4,-8 v 64 m 0,-56 h -4 m -796.0000026,8 V 161.22628 M 197.22628,49.226277 v 16 m 80,-16 V 161.22628 m 208,-112.000003 V 161.22628 m 96,-112.000003 v 16 m 224,-16 v 48 m -608,-32 v 96.000003 m 308,-88.000003 h 72 m 4,-8 v 32 m 0,-24 h -4 m -380,8 v 80.000003 m 384,-80.000003 v 16 64.000003 m 0,-56 h 116 m -112,0 h 112 m 4,0 v 56 m -4,-56 h 104 m -96,0 h 96 m 4,-8.000003 v 64.000003 m 0,-56 h -4 m -220,8 v 48 m 120,-48 v 48 m 104,-48 v 48 m -800.0000026,8 v -8 m 0,8 H 193.22628 m -184.0000026,0 H 193.22628 m 4,0 v -8 m 0,8 h -4 m 84,0 v -8 m 0,8 h 204 m -200,0 h 200 m 4,0 v -8 m 0,8 h -4 m 100,0 v -8 m 0,8 h 116 m -112,0 h 112 m 4,0 v -8 m -4,8 h 104 m -96,0 h 96 m 4,0 v -8 m 0,8 h -4 m -52,40 v 96 m -744.0000026,-72 v 24 m 0,-24 H 193.22628 m -184.0000026,0 H 193.22628 m 4,0 v 24 m 0,-24 h -4 m -188.0000026,8 v 16 m 192.0000026,-16 v 16 m -192.0000026,0 v 112 m 0,-104 H 193.22628 m -184.0000026,0 H 193.22628 m 4,-8 v 48 m 0,-40 h -4 m -188.0000026,8 v 96 m 192.0000026,-96 v 32 64 m 0,-56 h 548 m -544,0 h 544 m 4,0 v -8 m 0,8 h -4 m -548,8 v 48 m -192.0000026,8 v -8 m 0,8 H 193.22628 m -184.0000026,0 H 193.22628 m 4,0 v -8 m 0,8 h -4"
     fill="none"
     id="path61" />
  <path
     d=""
     fill="none"
     stroke-dasharray="3, 3"
     id="path63" />
  <line
     marker-end="url(#triangle)"
     x1="197.22627"
     x2="261.22629"
     y1="73.22628"
     y2="73.22628"
     id="line65" />
  <line
     marker-end="url(#triangle)"
     x1="201.22627"
     x2="261.22629"
     y1="73.22628"
     y2="73.22628"
     id="line67" />
  <line
     marker-end="url(#triangle)"
     x1="505.22629"
     x2="501.22629"
     y1="73.22628"
     y2="73.22628"
     id="line69" />
  <line
     marker-end="url(#triangle)"
     x1="749.22626"
     x2="749.22626"
     y1="209.22627"
     y2="193.22627"
     id="line71" />
  <text
     x="72.072998"
     y="29.839417"
     id="text73">.NET 6</text>
  <text
     x="331.22629"
     y="29.226276"
     id="text75">.NET Standard</text>
  <text
     x="672.01459"
     y="28.61314"
     id="text77">.NET 6</text>
  <text
     x="643.22626"
     y="77.22628"
     id="text79">Back End</text>
  <text
     x="43.226276"
     y="93.22628"
     id="text81">Front End</text>
  <text
     x="331.22629"
     y="93.22628"
     id="text83">Conference DTO</text>
  <text
     x="611.22626"
     y="141.22627"
     id="text85">EF Models</text>
  <text
     x="730.48175"
     y="133.86861"
     id="text87"><tspan
       sodipodi:role="line"
       id="tspan359"
       x="730.48175"
       y="133.86861">Minimal</tspan><tspan
       sodipodi:role="line"
       id="tspan361"
       x="730.48175"
       y="151.36861">APIs</tspan></text>
  <text
     x="35.226276"
     y="253.22627"
     id="text89" />
  <text
     x="371.22629"
     y="301.22629"
     id="text91">HTTP calls</text>
  <text
     x="43.226276"
     y="317.22629"
     id="text93">SPA Front End</text>
</svg>
